<svg width="1920" height="1080" viewBox="0 0 1920 1080" xmlns="http://www.w3.org/2000/svg"><rect width="1920" height="1080" fill="#fff8c7"/><path d="M 0,1080 C 0,1080 0,180 0,180 C 127.23076923076925,165.02820512820512 254.4615384615385,150.05641025641026 350,152 C 445.5384615384615,153.94358974358974 509.38461538461536,172.8025641025641 624,167 C 738.6153846153846,161.1974358974359 904,130.73333333333335 1015,130 C 1126,129.26666666666665 1182.6153846153848,158.26410256410253 1262,187 C 1341.3846153846152,215.73589743589747 1443.5384615384614,244.21025641025642 1557,243 C 1670.4615384615386,241.78974358974358 1795.2307692307693,210.8948717948718 1920,180 C 1920,180 1920,1080 1920,1080 Z" fill="#f0db70" opacity="0.09999999999999999"/><path d="M 0,1080 C 0,1080 0,360 0,360 C 130.6128205128205,329.49743589743593 261.225641025641,298.9948717948718 356,315 C 450.774358974359,331.0051282051282 509.7102564102564,393.5179487179487 614,397 C 718.2897435897436,400.4820512820513 867.9333333333334,344.93333333333334 978,327 C 1088.0666666666666,309.06666666666666 1158.5564102564103,328.7487179487179 1260,339 C 1361.4435897435897,349.2512820512821 1493.8410256410257,350.0717948717949 1609,352 C 1724.1589743589743,353.9282051282051 1822.0794871794872,356.9641025641025 1920,360 C 1920,360 1920,1080 1920,1080 Z" fill="#f0db70" opacity="0.19999999999999998"/><path d="M 0,1080 C 0,1080 0,540 0,540 C 94.55897435897435,552.4410256410256 189.1179487179487,564.8820512820513 294,549 C 398.8820512820513,533.1179487179487 514.0871794871795,488.91282051282053 638,481 C 761.9128205128205,473.08717948717947 894.5333333333333,501.46666666666675 1000,503 C 1105.4666666666667,504.53333333333325 1183.7794871794872,479.22051282051274 1287,491 C 1390.2205128205128,502.77948717948726 1518.3487179487179,551.6512820512821 1628,566 C 1737.6512820512821,580.3487179487179 1828.825641025641,560.1743589743589 1920,540 C 1920,540 1920,1080 1920,1080 Z" fill="#f0db70" opacity="0.3"/><path d="M 0,1080 C 0,1080 0,720 0,720 C 68.44358974358971,749.0897435897436 136.88717948717942,778.1794871794872 260,787 C 383.1128205128206,795.8205128205128 560.8948717948718,784.3717948717948 678,786 C 795.1051282051282,787.6282051282052 851.5333333333335,802.3333333333333 940,779 C 1028.4666666666665,755.6666666666667 1148.9717948717946,694.2948717948718 1252,687 C 1355.0282051282054,679.7051282051282 1440.5794871794874,726.4871794871796 1549,741 C 1657.4205128205126,755.5128205128204 1788.7102564102563,737.7564102564102 1920,720 C 1920,720 1920,1080 1920,1080 Z" fill="#f0db70" opacity="0.39999999999999997"/><path d="M 0,1080 C 0,1080 0,900 0,900 C 101.06666666666666,923.8076923076924 202.13333333333333,947.6153846153846 301,954 C 399.8666666666667,960.3846153846154 496.5333333333334,949.3461538461539 596,934 C 695.4666666666666,918.6538461538461 797.7333333333332,899.0000000000001 904,903 C 1010.2666666666668,906.9999999999999 1120.5333333333333,934.6538461538461 1236,951 C 1351.4666666666667,967.3461538461539 1472.1333333333332,972.3846153846154 1587,962 C 1701.8666666666668,951.6153846153846 1810.9333333333334,925.8076923076924 1920,900 C 1920,900 1920,1080 1920,1080 Z" fill="#f0db70" opacity="0.49999999999999994"/></svg>